<svg width="13" height="13" viewBox="0 0 13 13" fill="none" xmlns="http://www.w3.org/2000/svg">
<path d="M11.8493 9.65301L7.40796 1.94086C7.31488 1.7828 7.18216 1.65178 7.02291 1.56075C6.86367 1.46973 6.68342 1.42184 6.49999 1.42184C6.31657 1.42184 6.13632 1.46973 5.97707 1.56075C5.81783 1.65178 5.6851 1.7828 5.59203 1.94086L1.1507 9.65301C1.06189 9.80484 1.01509 9.97756 1.01509 10.1535C1.01509 10.3294 1.06189 10.5021 1.1507 10.6539C1.24237 10.8131 1.37481 10.9451 1.5344 11.0361C1.69399 11.1271 1.87495 11.174 2.05867 11.1719H10.9413C11.1249 11.1738 11.3056 11.1269 11.465 11.0358C11.6244 10.9448 11.7567 10.813 11.8483 10.6539C11.9372 10.5022 11.9842 10.3295 11.9844 10.1536C11.9846 9.9777 11.9379 9.80493 11.8493 9.65301ZM11.4969 10.4508C11.4405 10.5478 11.3593 10.628 11.2617 10.6834C11.1641 10.7387 11.0535 10.7671 10.9413 10.7656H2.05867C1.94647 10.7671 1.83591 10.7387 1.7383 10.6834C1.64069 10.628 1.55952 10.5478 1.50312 10.4508C1.4495 10.3608 1.4212 10.258 1.4212 10.1532C1.4212 10.0484 1.4495 9.94563 1.50312 9.85563L5.94394 2.14348C6.00146 2.04733 6.08292 1.96775 6.18038 1.91249C6.27784 1.85722 6.38796 1.82817 6.49999 1.82817C6.61203 1.82817 6.72215 1.85722 6.81961 1.91249C6.91707 1.96775 6.99853 2.04733 7.05605 2.14348L11.4969 9.85563C11.5505 9.94563 11.5788 10.0484 11.5788 10.1532C11.5788 10.258 11.5505 10.3608 11.4969 10.4508ZM6.29687 7.3125V5.28125C6.29687 5.22738 6.31827 5.17571 6.35636 5.13762C6.39446 5.09953 6.44612 5.07813 6.49999 5.07813C6.55387 5.07813 6.60553 5.09953 6.64362 5.13762C6.68172 5.17571 6.70312 5.22738 6.70312 5.28125V7.3125C6.70312 7.36637 6.68172 7.41804 6.64362 7.45613C6.60553 7.49423 6.55387 7.51563 6.49999 7.51563C6.44612 7.51563 6.39446 7.49423 6.35636 7.45613C6.31827 7.41804 6.29687 7.36637 6.29687 7.3125ZM6.90624 9.14063C6.90624 9.22097 6.88242 9.29952 6.83778 9.36633C6.79314 9.43313 6.72969 9.4852 6.65546 9.51595C6.58123 9.5467 6.49954 9.55474 6.42074 9.53907C6.34193 9.52339 6.26955 9.4847 6.21273 9.42789C6.15592 9.37107 6.11722 9.29869 6.10155 9.21988C6.08587 9.14108 6.09392 9.05939 6.12467 8.98516C6.15542 8.91093 6.20749 8.84748 6.27429 8.80284C6.3411 8.7582 6.41964 8.73438 6.49999 8.73438C6.60774 8.73438 6.71107 8.77718 6.78726 8.85336C6.86344 8.92955 6.90624 9.03288 6.90624 9.14063Z" fill="black"/>
</svg>
