<svg width="16" height="16" viewBox="0 0 16 16" fill="none" xmlns="http://www.w3.org/2000/svg">
<g clip-path="url(#clip0_1_26)">
<path d="M14.3333 2.66666H12.8889V3.55555H14.2222V13.3333H1.77777V3.55555H3.1111V2.66666H1.66666C1.56276 2.6684 1.46023 2.69059 1.36491 2.73196C1.26959 2.77333 1.18335 2.83307 1.11113 2.90777C1.0389 2.98247 0.982099 3.07067 0.943965 3.16733C0.905831 3.26399 0.887112 3.36721 0.888878 3.47111V13.4178C0.887112 13.5217 0.905831 13.6249 0.943965 13.7216C0.982099 13.8182 1.0389 13.9064 1.11113 13.9811C1.18335 14.0558 1.26959 14.1156 1.36491 14.1569C1.46023 14.1983 1.56276 14.2205 1.66666 14.2222H14.3333C14.4372 14.2205 14.5398 14.1983 14.6351 14.1569C14.7304 14.1156 14.8166 14.0558 14.8889 13.9811C14.9611 13.9064 15.0179 13.8182 15.056 13.7216C15.0941 13.6249 15.1129 13.5217 15.1111 13.4178V3.47111C15.1129 3.36721 15.0941 3.26399 15.056 3.16733C15.0179 3.07067 14.9611 2.98247 14.8889 2.90777C14.8166 2.83307 14.7304 2.77333 14.6351 2.73196C14.5398 2.69059 14.4372 2.6684 14.3333 2.66666Z" fill="black"/>
<path d="M3.55554 6.22222H4.44443V7.11111H3.55554V6.22222Z" fill="black"/>
<path d="M6.22223 6.22222H7.11112V7.11111H6.22223V6.22222Z" fill="black"/>
<path d="M8.88889 6.22222H9.77777V7.11111H8.88889V6.22222Z" fill="black"/>
<path d="M11.5555 6.22222H12.4444V7.11111H11.5555V6.22222Z" fill="black"/>
<path d="M3.55554 8.44444H4.44443V9.33333H3.55554V8.44444Z" fill="black"/>
<path d="M6.22223 8.44444H7.11112V9.33333H6.22223V8.44444Z" fill="black"/>
<path d="M8.88889 8.44444H9.77777V9.33333H8.88889V8.44444Z" fill="black"/>
<path d="M11.5555 8.44444H12.4444V9.33333H11.5555V8.44444Z" fill="black"/>
<path d="M3.55554 10.6667H4.44443V11.5556H3.55554V10.6667Z" fill="black"/>
<path d="M6.22223 10.6667H7.11112V11.5556H6.22223V10.6667Z" fill="black"/>
<path d="M8.88889 10.6667H9.77777V11.5556H8.88889V10.6667Z" fill="black"/>
<path d="M11.5555 10.6667H12.4444V11.5556H11.5555V10.6667Z" fill="black"/>
<path d="M4.44444 4.44444C4.56232 4.44444 4.67536 4.39762 4.75871 4.31427C4.84206 4.23092 4.88889 4.11787 4.88889 4V1.33333C4.88889 1.21546 4.84206 1.10241 4.75871 1.01906C4.67536 0.935711 4.56232 0.888885 4.44444 0.888885C4.32657 0.888885 4.21352 0.935711 4.13017 1.01906C4.04683 1.10241 4 1.21546 4 1.33333V4C4 4.11787 4.04683 4.23092 4.13017 4.31427C4.21352 4.39762 4.32657 4.44444 4.44444 4.44444Z" fill="black"/>
<path d="M11.5556 4.44444C11.6734 4.44444 11.7865 4.39762 11.8698 4.31427C11.9532 4.23092 12 4.11787 12 4V1.33333C12 1.21546 11.9532 1.10241 11.8698 1.01906C11.7865 0.935711 11.6734 0.888885 11.5556 0.888885C11.4377 0.888885 11.3246 0.935711 11.2413 1.01906C11.1579 1.10241 11.1111 1.21546 11.1111 1.33333V4C11.1111 4.11787 11.1579 4.23092 11.2413 4.31427C11.3246 4.39762 11.4377 4.44444 11.5556 4.44444Z" fill="black"/>
<path d="M5.77777 2.66666H10.2222V3.55555H5.77777V2.66666Z" fill="black"/>
</g>
<defs>
<clipPath id="clip0_1_26">
<rect width="16" height="16" fill="white"/>
</clipPath>
</defs>
</svg>
