<svg width="92" height="92" viewBox="0 0 92 92" fill="none" xmlns="http://www.w3.org/2000/svg">
<path d="M65.3775 54.9844C64.6585 59.0022 62.7258 62.7034 59.8396 65.5896C56.9534 68.4758 53.2522 70.4085 49.2344 71.1275C49.1154 71.1457 48.9953 71.1553 48.875 71.1562C48.3329 71.1584 47.8098 70.9562 47.41 70.59C47.0103 70.2239 46.7631 69.7205 46.7178 69.1803C46.6724 68.64 46.8323 68.1025 47.1655 67.6749C47.4986 67.2472 47.9807 66.9607 48.5156 66.8725C54.7616 65.8231 60.0623 60.5187 61.1225 54.2656C61.2178 53.7014 61.5334 53.1981 61.9997 52.8665C62.2307 52.7023 62.4917 52.5852 62.7679 52.5219C63.044 52.4586 63.33 52.4503 63.6094 52.4975C63.8888 52.5447 64.1561 52.6464 64.3962 52.797C64.6362 52.9475 64.8443 53.1438 65.0085 53.3747C65.1727 53.6057 65.2898 53.8667 65.3531 54.1429C65.4164 54.419 65.4247 54.705 65.3775 54.9844ZM76.9062 51.75C76.9062 59.9468 73.6501 67.808 67.854 73.604C62.058 79.4001 54.1968 82.6562 46 82.6562C37.8032 82.6562 29.942 79.4001 24.146 73.604C18.3499 67.808 15.0938 59.9468 15.0938 51.75C15.0937 41.878 18.993 31.7652 26.6836 21.6919C26.8683 21.4466 27.1032 21.2435 27.3727 21.0963C27.6422 20.9491 27.94 20.8612 28.2462 20.8384C28.5524 20.8156 28.86 20.8585 29.1483 20.9641C29.4366 21.0698 29.699 21.2358 29.918 21.4511L39.3839 30.6367L47.6819 7.88468C47.8003 7.56002 47.995 7.26857 48.2496 7.03489C48.5042 6.80122 48.8113 6.63217 49.1449 6.54198C49.4785 6.4518 49.8289 6.44312 50.1666 6.51669C50.5042 6.59025 50.8193 6.7439 51.0852 6.96468C58.8369 13.4155 76.9062 30.6906 76.9062 51.75ZM72.5938 51.75C72.5938 34.3562 58.7039 19.4637 50.6467 12.2906L42.2769 35.2403C42.1537 35.5786 41.9479 35.8806 41.6781 36.1189C41.4083 36.3572 41.0831 36.5241 40.7323 36.6045C40.3814 36.6849 40.016 36.6762 39.6694 36.5791C39.3227 36.4821 39.0059 36.2998 38.7478 36.0489L28.6853 26.2667C22.522 34.9061 19.4062 43.4844 19.4062 51.75C19.4063 58.8031 22.2081 65.5673 27.1954 70.5546C32.1827 75.5419 38.9469 78.3437 46 78.3437C53.0531 78.3437 59.8173 75.5419 64.8046 70.5546C69.7919 65.5673 72.5938 58.8031 72.5938 51.75Z" fill="black"/>
</svg>
