<svg width="16" height="16" viewBox="0 0 16 16" fill="none" xmlns="http://www.w3.org/2000/svg">
<path d="M12 9.14285C12.4546 9.14285 12.8907 9.32346 13.2122 9.64495C13.5337 9.96645 13.7143 10.4025 13.7143 10.8571V11.2657C13.7143 13.3097 11.3086 14.8571 7.99999 14.8571C4.69142 14.8571 2.28571 13.3903 2.28571 11.2657V10.8571C2.28571 10.4025 2.46632 9.96645 2.78781 9.64495C3.1093 9.32346 3.54533 9.14285 3.99999 9.14285H12ZM12 10H3.99999C3.78701 9.99999 3.58165 10.0793 3.42393 10.2224C3.26621 10.3656 3.16744 10.5623 3.14685 10.7743L3.14285 10.8571V11.2657C3.14285 12.7937 5.07942 14 7.99999 14C10.8148 14 12.7743 12.7971 12.8543 11.3577L12.8571 11.2657V10.8571C12.8571 10.6442 12.7778 10.4388 12.6347 10.2811C12.4916 10.1234 12.2948 10.0246 12.0828 10.004L12 10ZM7.99999 1.14285C8.45024 1.14285 8.89608 1.23154 9.31205 1.40384C9.72802 1.57614 10.106 1.82869 10.4244 2.14706C10.7427 2.46543 10.9953 2.84339 11.1676 3.25937C11.3399 3.67534 11.4286 4.12118 11.4286 4.57142C11.4286 5.02167 11.3399 5.46751 11.1676 5.88348C10.9953 6.29945 10.7427 6.67742 10.4244 6.99579C10.106 7.31416 9.72802 7.56671 9.31205 7.73901C8.89608 7.91131 8.45024 8 7.99999 8C7.09068 8 6.21861 7.63877 5.57563 6.99579C4.93264 6.35281 4.57142 5.48074 4.57142 4.57142C4.57142 3.66211 4.93264 2.79004 5.57563 2.14706C6.21861 1.50408 7.09068 1.14285 7.99999 1.14285ZM7.99999 2C7.31801 2 6.66395 2.27091 6.18172 2.75315C5.69948 3.23539 5.42856 3.88944 5.42856 4.57142C5.42856 5.25341 5.69948 5.90746 6.18172 6.3897C6.66395 6.87193 7.31801 7.14285 7.99999 7.14285C8.68198 7.14285 9.33603 6.87193 9.81827 6.3897C10.3005 5.90746 10.5714 5.25341 10.5714 4.57142C10.5714 3.88944 10.3005 3.23539 9.81827 2.75315C9.33603 2.27091 8.68198 2 7.99999 2Z" fill="black"/>
</svg>
