<svg width="16" height="16" viewBox="0 0 16 16" fill="none" xmlns="http://www.w3.org/2000/svg">
<path fill-rule="evenodd" clip-rule="evenodd" d="M7.99999 14.1257L8.48075 13.584C9.02627 12.9592 9.51694 12.3665 9.95351 11.8027L10.3139 11.3272C11.8187 9.29981 12.5714 7.69067 12.5714 6.50133C12.5714 3.96267 10.5249 1.90476 7.99999 1.90476C5.47503 1.90476 3.42856 3.96267 3.42856 6.50133C3.42856 7.69067 4.18132 9.29981 5.68608 11.3272L6.04646 11.8027C6.66927 12.6007 7.32088 13.375 7.99999 14.1257Z" stroke="black" stroke-linecap="round" stroke-linejoin="round"/>
<path d="M7.99998 8.38095C9.05195 8.38095 9.90474 7.52816 9.90474 6.47619C9.90474 5.42422 9.05195 4.57143 7.99998 4.57143C6.94801 4.57143 6.09521 5.42422 6.09521 6.47619C6.09521 7.52816 6.94801 8.38095 7.99998 8.38095Z" stroke="black" stroke-linecap="round" stroke-linejoin="round"/>
</svg>
