<svg width="74" height="74" viewBox="0 0 74 74" fill="none" xmlns="http://www.w3.org/2000/svg">
<path d="M64.75 64.75L51.3591 51.3591M51.3591 51.3591C53.6496 49.0685 55.4666 46.3492 56.7063 43.3564C57.9459 40.3637 58.584 37.156 58.584 33.9167C58.584 30.6773 57.9459 27.4697 56.7063 24.4769C55.4666 21.4841 53.6496 18.7648 51.3591 16.4742C49.0685 14.1837 46.3492 12.3667 43.3564 11.127C40.3637 9.8874 37.156 9.24936 33.9167 9.24936C30.6773 9.24936 27.4697 9.8874 24.4769 11.127C21.4841 12.3667 18.7648 14.1837 16.4742 16.4742C11.8482 21.1003 9.24936 27.3745 9.24936 33.9167C9.24936 40.4588 11.8482 46.7331 16.4742 51.3591C21.1003 55.9851 27.3745 58.584 33.9167 58.584C40.4588 58.584 46.7331 55.9851 51.3591 51.3591Z" stroke="black" stroke-linecap="round" stroke-linejoin="round"/>
<path d="M26.8 26.8C26.8 26.3787 26.9109 25.9649 27.1215 25.6C27.3322 25.2352 27.6352 24.9322 28 24.7216V41.2C28 41.5183 28.1264 41.8235 28.3515 42.0485C28.5765 42.2736 28.8817 42.4 29.2 42.4H38.8C39.1182 42.4 39.4235 42.2736 39.6485 42.0485C39.8736 41.8235 40 41.5183 40 41.2V26.8C40 26.4817 39.8736 26.1765 39.6485 25.9515C39.4235 25.7264 39.1182 25.6 38.8 25.6H36.4V24.4H38.8C39.4365 24.4 40.047 24.6529 40.497 25.1029C40.9471 25.553 41.2 26.1635 41.2 26.8V41.2C41.2 41.8365 40.9471 42.447 40.497 42.8971C40.047 43.3471 39.4365 43.6 38.8 43.6H29.2C28.5635 43.6 27.953 43.3471 27.5029 42.8971C27.0528 42.447 26.8 41.8365 26.8 41.2V26.8ZM29.2 24.4V32.2C29.2 32.3114 29.231 32.4206 29.2896 32.5154C29.3482 32.6102 29.432 32.6868 29.5317 32.7367C29.6313 32.7865 29.7429 32.8076 29.8539 32.7976C29.9648 32.7876 30.0708 32.7469 30.16 32.68L32.2 31.15L34.24 32.68C34.3291 32.7469 34.4351 32.7876 34.5461 32.7976C34.6571 32.8076 34.7687 32.7865 34.8683 32.7367C34.968 32.6868 35.0518 32.6102 35.1104 32.5154C35.169 32.4206 35.2 32.3114 35.2 32.2V24.4H29.2ZM30.4 31V25.6H34V31L32.56 29.92C32.4561 29.8421 32.3298 29.8 32.2 29.8C32.0702 29.8 31.9438 29.8421 31.84 29.92L30.4 31Z" fill="black"/>
</svg>
