<svg width="16" height="16" viewBox="0 0 16 16" fill="none" xmlns="http://www.w3.org/2000/svg">
<path d="M2.33334 5.33334C2.33347 4.70128 2.49698 4.07999 2.80801 3.52976C3.11905 2.97953 3.56703 2.51904 4.10849 2.19298C4.64996 1.86692 5.26651 1.68637 5.89833 1.66884C6.53014 1.65132 7.15576 1.79741 7.71446 2.09295C8.27317 2.38849 8.746 2.82343 9.08705 3.35558C9.42811 3.88772 9.62582 4.49899 9.66099 5.13007C9.69616 5.76114 9.5676 6.3906 9.28779 6.95734C9.00797 7.52409 8.58641 8.00888 8.064 8.36467C9.189 8.77729 10.1648 9.51714 10.8658 10.489C11.5667 11.4609 11.9608 12.6203 11.9973 13.818C11.9958 13.9471 11.9444 14.0707 11.8539 14.1628C11.7634 14.255 11.6408 14.3086 11.5117 14.3124C11.3826 14.3163 11.257 14.2701 11.1612 14.1836C11.0653 14.0971 11.0066 13.9768 10.9973 13.848C10.9576 12.549 10.4137 11.3164 9.48078 10.4116C8.54787 9.50677 7.2993 9.00074 5.99967 9.00074C4.70003 9.00074 3.45147 9.50677 2.51855 10.4116C1.58564 11.3164 1.0417 12.549 1.002 13.848C0.995328 13.9786 0.937788 14.1013 0.841709 14.19C0.74563 14.2786 0.618655 14.3261 0.487985 14.3223C0.357315 14.3184 0.233344 14.2636 0.14263 14.1694C0.0519164 14.0753 0.00167509 13.9494 0.00266951 13.8187C0.0390371 12.6208 0.433074 11.4613 1.13406 10.4893C1.83505 9.51729 2.8109 8.77734 3.936 8.36467C3.44189 8.02843 3.03753 7.57642 2.75818 7.04805C2.47884 6.51968 2.33298 5.931 2.33334 5.33334ZM6 2.66667C5.29276 2.66667 4.61448 2.94762 4.11438 3.44772C3.61429 3.94782 3.33334 4.62609 3.33334 5.33334C3.33334 6.04058 3.61429 6.71886 4.11438 7.21896C4.61448 7.71905 5.29276 8 6 8C6.70725 8 7.38552 7.71905 7.88562 7.21896C8.38572 6.71886 8.66667 6.04058 8.66667 5.33334C8.66667 4.62609 8.38572 3.94782 7.88562 3.44772C7.38552 2.94762 6.70725 2.66667 6 2.66667ZM11.5267 5.33334C11.428 5.33334 11.332 5.34 11.2373 5.35334C11.1712 5.36517 11.1034 5.36357 11.038 5.34864C10.9725 5.3337 10.9107 5.30573 10.8563 5.26639C10.8019 5.22706 10.756 5.17717 10.7212 5.1197C10.6865 5.06222 10.6637 4.99835 10.6542 4.93188C10.6447 4.8654 10.6487 4.7977 10.666 4.73281C10.6832 4.66791 10.7133 4.60715 10.7546 4.55415C10.7958 4.50116 10.8473 4.45701 10.9059 4.42434C10.9646 4.39167 11.0292 4.37115 11.096 4.364C11.7591 4.26814 12.4352 4.39547 13.0179 4.72595C13.6007 5.05644 14.057 5.57131 14.3151 6.18955C14.5731 6.80779 14.6183 7.4943 14.4435 8.14103C14.2687 8.78776 13.8838 9.358 13.3493 9.762C14.1349 10.1138 14.8019 10.6853 15.2699 11.4078C15.7379 12.1302 15.9868 12.9726 15.9867 13.8333C15.9867 13.9659 15.934 14.0931 15.8402 14.1869C15.7465 14.2807 15.6193 14.3333 15.4867 14.3333C15.3541 14.3333 15.2269 14.2807 15.1331 14.1869C15.0393 14.0931 14.9867 13.9659 14.9867 13.8333C14.9866 13.0894 14.7469 12.3653 14.3031 11.7683C13.8593 11.1713 13.235 10.7331 12.5227 10.5187L12.1667 10.412V9.29467L12.44 9.15534C12.8452 8.9501 13.1694 8.61431 13.3602 8.20216C13.5511 7.79002 13.5975 7.32559 13.4919 6.88384C13.3863 6.44209 13.135 6.04881 12.7784 5.76749C12.4218 5.48616 11.9809 5.33322 11.5267 5.33334Z" fill="black"/>
</svg>
