<svg width="256" height="256" viewBox="0 0 256 256" fill="none" xmlns="http://www.w3.org/2000/svg">
<path d="M235.38 98.53C234.671 96.2765 233.304 94.2871 231.453 92.8184C229.603 91.3496 227.355 90.469 225 90.29L165.55 85.15C164.827 85.0828 164.136 84.8202 163.552 84.3903C162.967 83.9605 162.51 83.3796 162.23 82.71L139 27.36C138.092 25.1827 136.561 23.3228 134.598 22.0144C132.635 20.7061 130.329 20.008 127.97 20.008C125.611 20.008 123.305 20.7061 121.342 22.0144C119.379 23.3228 117.848 25.1827 116.94 27.36L93.7399 82.71C93.4599 83.3796 93.003 83.9605 92.4182 84.3903C91.8333 84.8202 91.1426 85.0828 90.4199 85.15L30.9999 90.29C28.6397 90.4835 26.3895 91.371 24.5327 92.8408C22.6759 94.3105 21.2955 96.2968 20.5652 98.5495C19.835 100.802 19.7876 103.221 20.4291 105.5C21.0705 107.78 22.3721 109.819 24.1699 111.36L69.2699 150.71C69.8331 151.193 70.251 151.822 70.4771 152.529C70.7031 153.235 70.7283 153.99 70.5499 154.71L56.9999 213.22C56.4415 215.529 56.5879 217.952 57.4204 220.176C58.2528 222.401 59.733 224.325 61.6699 225.7C63.563 227.098 65.832 227.896 68.1835 227.99C70.5349 228.085 72.8607 227.472 74.8599 226.23L125.96 195.23C126.573 194.852 127.279 194.652 128 194.652C128.72 194.652 129.426 194.852 130.04 195.23L181.14 226.23C183.16 227.441 185.492 228.03 187.844 227.925C190.197 227.82 192.467 227.025 194.371 225.639C196.275 224.253 197.73 222.338 198.553 220.131C199.376 217.924 199.531 215.524 199 213.23L185.48 154.69C185.301 153.97 185.327 153.215 185.553 152.508C185.779 151.802 186.197 151.173 186.76 150.69L231.86 111.34C233.655 109.798 234.949 107.755 235.576 105.472C236.203 103.19 236.135 100.773 235.38 98.53ZM226.6 105.33L181.5 144.68C179.849 146.112 178.62 147.969 177.947 150.048C177.274 152.128 177.182 154.352 177.68 156.48L191.2 215C191.389 215.776 191.341 216.59 191.063 217.339C190.785 218.087 190.289 218.736 189.64 219.2C189.016 219.663 188.267 219.926 187.491 219.957C186.715 219.987 185.948 219.783 185.29 219.37L134.19 188.37C132.326 187.232 130.184 186.63 128 186.63C125.816 186.63 123.674 187.232 121.81 188.37L70.7099 219.37C70.0519 219.783 69.2847 219.987 68.5086 219.957C67.7325 219.926 66.9837 219.663 66.3599 219.2C65.7103 218.736 65.2147 218.087 64.9366 217.339C64.6586 216.59 64.611 215.776 64.7999 215L78.3199 156.46C78.8182 154.332 78.7258 152.108 78.0526 150.028C77.3794 147.949 76.1509 146.092 74.4999 144.66L29.3999 105.33C28.7927 104.809 28.3557 104.118 28.1454 103.346C27.935 102.574 27.961 101.757 28.2199 101C28.4612 100.255 28.9158 99.5978 29.5273 99.1089C30.1388 98.6201 30.8803 98.3215 31.6599 98.25L91.1099 93.11C93.2839 92.9162 95.3639 92.1331 97.126 90.845C98.8881 89.557 100.265 87.8127 101.11 85.8L124.33 30.44C124.643 29.7302 125.155 29.1267 125.805 28.703C126.455 28.2794 127.214 28.0538 127.99 28.0538C128.766 28.0538 129.525 28.2794 130.174 28.703C130.824 29.1267 131.337 29.7302 131.65 30.44L154.87 85.8C155.714 87.8127 157.092 89.557 158.854 90.845C160.616 92.1331 162.696 92.9162 164.87 93.11L224.32 98.25C225.099 98.3215 225.841 98.6201 226.452 99.1089C227.064 99.5978 227.518 100.255 227.76 101C228.021 101.755 228.05 102.571 227.843 103.343C227.637 104.114 227.204 104.807 226.6 105.33Z" fill="black"/>
</svg>
