<svg width="16" height="16" viewBox="0 0 16 16" fill="none" xmlns="http://www.w3.org/2000/svg">
<path d="M8 1C11.8661 1 15 4.1339 15 8C15 11.8661 11.8661 15 8 15C4.1339 15 1 11.8661 1 8C1 4.1339 4.1339 1 8 1ZM8 1.9765C6.40247 1.9765 4.87037 2.61112 3.74074 3.74074C2.61112 4.87037 1.9765 6.40247 1.9765 8C1.9765 9.59753 2.61112 11.1296 3.74074 12.2593C4.87037 13.3889 6.40247 14.0235 8 14.0235C9.59753 14.0235 11.1296 13.3889 12.2593 12.2593C13.3889 11.1296 14.0235 9.59753 14.0235 8C14.0235 6.40247 13.3889 4.87037 12.2593 3.74074C11.1296 2.61112 9.59753 1.9765 8 1.9765ZM7.349 4.9067C7.6185 4.9067 7.8369 5.1258 7.8369 5.3953V8.8141H11.2557C11.382 8.81888 11.5015 8.87242 11.5892 8.96346C11.6768 9.0545 11.7258 9.17597 11.7258 9.30235C11.7258 9.42873 11.6768 9.5502 11.5892 9.64124C11.5015 9.73228 11.382 9.78582 11.2557 9.7906H7.349C7.21941 9.7906 7.09514 9.73912 7.00351 9.64749C6.91188 9.55586 6.8604 9.43158 6.8604 9.302V5.396C6.8604 5.1258 7.0788 4.9067 7.349 4.9067Z" fill="black"/>
</svg>
